<svg version="1.1" xmlns="http://www.w3.org/2000/svg" viewBox="0 0 3001.25 6634.375" width="3001.25" height="6634.375">
  <!-- svg-source:excalidraw -->
  
  <defs>
    <style class="style-fonts">
      @font-face {
        font-family: "Virgil";
        src: url("https://excalidraw.com/Virgil.woff2");
      }
      @font-face {
        font-family: "Cascadia";
        src: url("https://excalidraw.com/Cascadia.woff2");
      }
    </style>
  </defs>
  <rect x="0" y="0" width="3001.25" height="6634.375" fill="#ffffff"></rect><g stroke-linecap="round" transform="translate(10 10) rotate(0 1490.625 3307.1875)"><path d="M0.33 -0.04 L2982.07 -0.77 L2980.98 6613.7 L-1.16 6615.78" stroke="none" stroke-width="0" fill="#91fff5"></path><path d="M0.67 -0.38 C704.2 -9.59, 1409.02 -10.48, 2981.02 -0.07 M-0.26 0.09 C618.42 -9.67, 1236.71 -9.94, 2981.02 0.01 M2981.08 -0.29 C2987.42 2534.84, 2986.49 5068.23, 2981.76 6613.88 M2981.36 0.21 C2990.62 1871.91, 2990.32 3743.27, 2981.1 6614.33 M2981.11 6614.3 C1835.42 6616.44, 688.87 6616.99, 0.61 6613.59 M2981.26 6614.43 C2375.14 6623.26, 1769.01 6623.28, -0.15 6614.56 M0.47 6613.78 C6.68 5203.67, 5.5 3793.76, -0.47 0.14 M0.25 6614.11 C-19.47 4345.52, -19.26 2077.19, -0.36 0.07" stroke="#000000" stroke-width="4" fill="none"></path></g><g stroke-linecap="round"><g transform="translate(66.01562499999636 38.82812500000006) rotate(0 556.711745166871 597.3365759357811)" fill-rule="evenodd"><path d="M-0.66 0.86 L1113.48 444.42 L521.14 1194.36 L57.54 883.36 L1.2 486.52 L465.76 606.33 L419.52 781.95 L246.1 834.68 L484.12 996.68 L752.83 596.38 L166.9 415.76 L1.09 1.27" stroke="none" stroke-width="0" fill="#10c4b4" fill-rule="evenodd"></path><path d="M0.17 0.52 C293.16 121.27, 585.78 237.69, 1113.79 445.17 M0.08 -0.07 C343.34 139.86, 687.7 276.81, 1114.05 445.09 M1113.46 445.12 C886.67 728.21, 662.52 1012.16, 521.76 1194.74 M1113.78 445.12 C875.75 744.58, 640.86 1042.08, 521.23 1194.3 M521.73 1194.7 C411.5 1118.57, 301.3 1044.34, 58.38 881.91 M521.66 1193.94 C388.64 1102.8, 255.13 1013.12, 57.9 881.35 M57.16 881.94 C47.34 793.45, 33.69 703.69, 1.87 485.86 M58.27 881.28 C40.79 746, 21.15 610.48, 1.01 484.86 M2.26 484.42 C185.11 532.9, 366.77 581.15, 464.07 607.71 M1.86 485.37 C99.03 512.45, 196.93 538.43, 464.96 607.24 M465.47 606.04 C451.72 669.05, 435.63 733.11, 420.12 785.43 M465.49 607.77 C448.96 671.14, 431.59 734.97, 421.33 784.47 M421.76 784.14 C361.51 802.52, 297.06 819.69, 246.15 837.13 M420.61 784.64 C354.25 805.26, 285.17 826, 247.16 835.33 M245.95 835.45 C317.55 882.53, 388.87 931.28, 483.58 997.13 M246.79 835.93 C332.01 895.45, 417.61 952.87, 485.31 996.29 M484.41 995.93 C571.24 869.44, 656.32 740.77, 752.08 596.07 M485.3 996.43 C574.66 863.48, 662.73 730.72, 751.16 595.31 M750.75 595.54 C542.58 530.63, 334.67 466.94, 166.96 414.74 M751.14 595.47 C595.24 545.42, 439.07 496.96, 167.27 414.65 M167.3 414.35 C115.75 291.9, 67.27 170.94, -0.63 0.61 M166.95 414.68 C104.41 260.18, 42.33 105.34, -0.37 0.21 M0 0 C0 0, 0 0, 0 0 M0 0 C0 0, 0 0, 0 0" stroke="#000000" stroke-width="4" fill="none"></path></g></g><mask></mask><g stroke-linecap="round"><g transform="translate(2067.8515624999964 1472.05078125) rotate(0 177.63139200061596 -201.32750975936654)" fill-rule="evenodd"><path d="M1.64 -0.07 L872.28 -912.4 L863.42 27.37 L59.63 510.94 L-517.29 187.8 L304.58 244.93 L331.7 43.26 L631.54 27.2 L573.03 -298.68 L676.48 -413.76 L796.26 -680.8 L467.96 -339.41 L501.84 -83.38 L223.19 -66.1 L151.98 136.25 L-517.93 102.84 L-350.58 -593.35 L287.73 -882.25 L-176.98 -214.41 L0.36 -1.38" stroke="none" stroke-width="0" fill="#10c4b4" fill-rule="evenodd"></path><path d="M0.63 -0.03 C295 -309.67, 590.36 -617.04, 873.66 -912.73 M-0.4 -0.04 C281.02 -296.89, 564.88 -592.54, 873.78 -911.86 M873.93 -911.34 C872.99 -673.57, 870.09 -434.48, 862.45 28.38 M873.8 -911.92 C868.51 -648.75, 865.6 -385.1, 863 29.19 M863.75 29.49 C684.8 135.49, 506.08 242.76, 60.09 509.93 M863.2 28.82 C651.55 158.12, 440.64 285.57, 59.95 510.08 M60.01 510 C-108.25 419.11, -276.27 325, -518.17 188.35 M60.27 510.04 C-101.07 418.02, -262.56 327.88, -518.32 187.68 M-518.2 186.76 C-245.58 209.77, 26.48 228.98, 302.94 246.94 M-518.66 187.35 C-244.59 205.48, 29.62 224.74, 303.83 246.13 M303.45 246.63 C317.08 167.57, 326.2 88.03, 331.59 43.4 M304.05 245.7 C313.58 185.01, 322.33 123.02, 332.07 42.22 M332.89 43.79 C393.52 38.97, 454.99 35.1, 630.45 26 M332.72 42.53 C396.25 40.87, 460.09 37.82, 631.54 26.87 M631.98 27.46 C612.16 -74.41, 594.05 -176.9, 570.58 -300.63 M630.36 26.57 C611.77 -77.96, 592.12 -180.65, 571.7 -299.26 M571.3 -301.43 C614.05 -346.28, 657.06 -393.01, 674.53 -414.08 M570.72 -300.28 C610.82 -342.34, 650.65 -384.25, 675.61 -416.43 M677.61 -416.45 C701.76 -470.82, 725.35 -524.84, 794.12 -683.55 M675.9 -416.03 C709.17 -493.74, 743.94 -570.41, 794.79 -682.92 M794.03 -683.11 C701.17 -585.39, 610.25 -489.76, 465.74 -339.08 M795.02 -682.17 C710.78 -594.7, 626.64 -507.21, 466.25 -339.62 M466.88 -339.18 C476.63 -273.27, 486.53 -207.76, 503.84 -82.7 M466.54 -339.64 C479.77 -246.57, 492.31 -152.73, 502.67 -83.19 M501.97 -82.28 C439.75 -79.27, 375.54 -75.44, 223.44 -68.39 M502.74 -83.15 C416.37 -79.22, 329.11 -74.2, 223.57 -67.2 M222.68 -68.98 C204.95 -19.02, 187 32.65, 151.17 133.5 M224.59 -67.44 C205.37 -13.27, 185.54 43.22, 150.54 134.74 M151.47 134.4 C-12.01 126.45, -176.48 119.51, -517.64 103.46 M151.03 134.68 C-94.26 123.95, -340.02 111.91, -517.24 102.89 M-517.76 103.59 C-453.74 -158.02, -391.98 -420.07, -352.54 -594.71 M-517.41 102.66 C-460.78 -135.16, -404.16 -373.68, -351.68 -594.56 M-351.83 -593.51 C-143.93 -690.83, 65.58 -784.97, 285.44 -884.1 M-352.04 -594.11 C-198.54 -663.95, -44.98 -733.29, 285.8 -883.26 M285.67 -883.69 C169.76 -711.64, 51.5 -542.18, -177.8 -214 M286.23 -883.32 C153.6 -697.57, 23.35 -509.76, -177.57 -213.49 M-179.45 -212.28 C-127.56 -148.43, -75.13 -86.5, 1.39 0.11 M-177.43 -213.13 C-118.81 -143.16, -60.29 -71.31, -0.59 0.08 M0 0 C0 0, 0 0, 0 0 M0 0 C0 0, 0 0, 0 0" stroke="#000000" stroke-width="4" fill="none"></path></g></g><mask></mask><g stroke-linecap="round"><g transform="translate(1178.7695312499964 123.00781249999994) rotate(0 624.007830011371 258.59166242588356)" fill-rule="evenodd"><path d="M-0.21 1.2 L373.63 -59.54 L1034.92 139.35 L1606.01 -47.5 L1779.48 310.28 L1098.55 360.35 L620.02 242.8 L262.63 576.87 L351.7 177.83 L-152.09 198.78 L-530 -12.83 L0.62 -1.28" stroke="none" stroke-width="0" fill="#10c4b4" fill-rule="evenodd"></path><path d="M0.88 -0.31 C147.56 -22.6, 296.19 -47.67, 373.18 -59.42 M0.45 -0.08 C104.26 -18.08, 209.81 -35.08, 373.01 -60.19 M373.66 -60.08 C549.07 -9.36, 727.28 45.22, 1036.24 140.75 M373.22 -60.77 C639.18 20.71, 904.72 100.9, 1036.71 140.52 M1036.74 140.44 C1220.76 77.37, 1404.82 17.4, 1607.65 -48.23 M1036.5 140.7 C1253.64 69.74, 1471.34 -2.33, 1607.84 -48.73 M1608.53 -47.94 C1655.26 54.73, 1704.87 158.75, 1780.2 309.39 M1607.52 -48.95 C1669.06 74, 1727.25 196.06, 1779.81 308.7 M1779.44 308.92 C1526.12 330.37, 1271.67 348.6, 1098.95 358.89 M1780.07 308.79 C1580.42 322.83, 1380.32 337.34, 1098.33 359.41 M1098.96 358.46 C943.16 321.04, 787.91 284.46, 620.31 244.9 M1098.39 358.98 C978.55 328.92, 859.39 300.01, 619.4 243.81 M619.84 243.31 C503.54 351.23, 387.98 458.2, 262.15 577.2 M619.71 244.43 C487.46 367.26, 353.95 491.84, 261.63 577.74 M262 577.52 C281.2 483.15, 302.97 386.88, 351.82 178.96 M261.26 577.95 C288.85 465.25, 313.57 353.08, 352.08 179.09 M352.51 180.03 C187.12 186.73, 20.88 193.56, -153.2 200.27 M352.15 179.74 C155.79 188.22, -40.11 195.32, -153.95 200.28 M-153.85 199.52 C-262 137.65, -369.77 75.54, -532.19 -13.51 M-153.54 199.81 C-234.89 156.13, -314.85 110.41, -531.69 -14.07 M-531.34 -14.24 C-352.29 -8.88, -172.28 -4.9, -0.45 -0.47 M-531.78 -14.46 C-361.9 -9.86, -193.18 -5.88, -0.1 0 M0 0 C0 0, 0 0, 0 0 M0 0 C0 0, 0 0, 0 0" stroke="#000000" stroke-width="4" fill="none"></path></g></g><mask></mask><g stroke-linecap="round"><g transform="translate(1704.2313016471562 5674.188925913585) rotate(353.9558064561437 -466.65689388223836 298.1167615439772)" fill-rule="evenodd"><path d="M-367.57 -84.52 L-108.73 -147.29 L-52.76 241.51 L-605.44 740.32 L-882.3 664.07 L-694.24 423.05 L-684.79 581.39 L-489.36 519.63 L-255.24 374.69 L-537.05 391.4 L-406.13 258.96 L-276.81 199.36 L-374.51 101.21 L-203.4 -19.56 L-367.53 -85.09" stroke="none" stroke-width="0" fill="#10c4b4" fill-rule="evenodd"></path><path d="M-367.81 -86.06 C-284.54 -102.58, -202.46 -124.03, -108.8 -146.33 M-367.77 -86.18 C-283.93 -105.92, -199.64 -126.54, -109.85 -145.41 M-108.84 -145.42 C-92.69 -38.53, -77.76 70.06, -52.33 240.87 M-108.93 -145.62 C-94.08 -33.45, -77.35 80.66, -51.64 240.24 M-51.12 240.61 C-259.2 428.17, -466.88 615.37, -607.47 741.21 M-52.14 239.73 C-194.36 367.77, -336.31 495.05, -607.51 741.84 M-606.07 740.54 C-675.99 722.85, -742.8 702.07, -881.97 661.14 M-607.67 742.56 C-696.46 714.65, -785.92 689.04, -881.06 663.05 M-882.19 662.15 C-815.26 579.43, -749.94 496.08, -691.71 423.47 M-880.73 662.25 C-836.39 603.63, -791.46 546.61, -692.39 424.16 M-693.8 423.74 C-690.78 467.77, -685.47 515.32, -682.92 581.36 M-693.4 425.53 C-689.33 463.26, -687.34 502.1, -684.07 581.3 M-682.02 579.85 C-620.02 558.76, -561.51 541.88, -487.49 520.31 M-682.94 580.88 C-613.6 558.79, -543.9 537.16, -488.32 521.09 M-487.64 522.71 C-424.95 479.32, -358.66 437.26, -255.58 376.13 M-488.56 521.17 C-436.45 488.58, -384.21 455.21, -256.21 375.76 M-255.68 374.92 C-350.25 382.8, -445.84 387.81, -539.32 389.3 M-255.74 375.41 C-322.44 378.44, -390.91 382.65, -538.37 389.67 M-537.35 390.43 C-500.76 350.09, -461.65 312.75, -406.13 257.12 M-538.44 390.46 C-488.93 340.41, -438.83 289.15, -406.41 258.4 M-405.06 257.41 C-367.58 242.21, -325.79 222.94, -278.1 202.95 M-406.22 257.56 C-365.82 239.07, -323.67 221.41, -278.86 201.57 M-276.46 202.3 C-302.07 178.44, -320.85 156.44, -370.61 103.2 M-277.59 200.45 C-301.9 174.96, -326.7 150.36, -372.31 101.98 M-372.91 102.25 C-319.04 62.66, -264.07 21.03, -204.1 -20.05 M-372.82 102.91 C-333.22 73.21, -294.45 44.81, -204.9 -20.32 M-205.2 -20.4 C-268.39 -46.66, -332.7 -72, -366.97 -86.66 M-203.96 -20.11 C-264.81 -43.27, -326.14 -68.33, -367.81 -85.36 M-367.66 -85.74 C-367.66 -85.74, -367.66 -85.74, -367.66 -85.74 M-367.66 -85.74 C-367.66 -85.74, -367.66 -85.74, -367.66 -85.74" stroke="#000000" stroke-width="4" fill="none"></path></g></g><mask></mask><g stroke-linecap="round"><g transform="translate(1041.9700121608294 1508.130559696268) rotate(0 317.6976729750695 447.2660834697457)" fill-rule="evenodd"><path d="M-14.62 1.45 L346.56 172.78 L88.76 221.04 L530.23 610.94 L691 607.61 L707.37 793.21 L480.05 896.41 L199.28 746.79 L266.49 594.86 L28.86 554.16 L-6.75 348.77 L130.3 408.1 L49.02 263.94 L-71.79 132.68 L-16.4 -0.89" stroke="none" stroke-width="0" fill="#10c4b4" fill-rule="evenodd"></path><path d="M-15.74 -0.91 C75.29 41.64, 164.23 83.53, 345.39 172.28 M-15.75 -0.06 C71.84 42.49, 161.85 84.91, 346.14 173.31 M345.33 172.13 C269.64 189.11, 191.08 204.15, 90.19 222.43 M345.45 173.63 C280.61 185.43, 214.36 198.86, 89.64 223.39 M89.5 222.38 C192.64 313.34, 297.49 406.56, 530.05 612.07 M89.41 223.28 C237.37 353.99, 385.91 485.25, 530.46 611.9 M531.6 613.65 C581.31 610.05, 633.82 609.94, 691.34 606.25 M530.49 611.69 C576.42 610.37, 621.86 608.65, 693.34 606.63 M692.83 605.92 C697.19 656.34, 698.22 702.07, 705.75 796.79 M692.2 607.11 C695.14 646.17, 696.53 685.21, 705.65 794.27 M706.93 793.57 C639.26 824.9, 576.96 852.88, 480.36 894.6 M704.78 795.33 C647.7 819.34, 588.8 845.62, 479.51 895.31 M479.17 895.45 C409.33 857.27, 341.11 822.29, 197.61 746.81 M478.86 895.07 C382.63 842.57, 286.81 792.77, 197.67 747.11 M198.91 746.09 C213.18 710.5, 232.58 676.11, 267.72 597.34 M198.18 745.68 C217.61 706.22, 234.93 665.68, 266.9 595.04 M269.04 597.39 C188.53 581.02, 111.72 565.09, 31.09 552.29 M268.09 596.24 C210.63 584.35, 152.11 573.72, 30.58 551.99 M31.32 554.27 C21.97 511.24, 13.02 469.54, -9.27 347.29 M31.2 552.57 C20.14 506.97, 10.77 460.12, -8.13 347.56 M-7.97 349.75 C23.24 362.77, 56.56 376.05, 127.95 411.71 M-8.62 348.34 C22.68 360.05, 53.64 374.85, 129.18 410.42 M129.55 410.47 C98.52 355.82, 68.68 297.47, 49.79 263.94 M127.64 410.19 C108.25 373.97, 88.78 338.47, 49.3 262.42 M50.91 260.53 C16.77 229.06, -9.64 198.91, -71.53 135.23 M49.72 262.19 C24.98 236.28, 2.43 211.27, -70.87 134.86 M-71.18 132.86 C-48.96 84.73, -29.08 32.72, -16.71 -0.26 M-70.69 133.88 C-56.19 100.03, -43.24 66.12, -15.02 0.12 M-15.98 0 C-15.98 0, -15.98 0, -15.98 0 M-15.98 0 C-15.98 0, -15.98 0, -15.98 0" stroke="#000000" stroke-width="4" fill="none"></path></g></g><mask></mask><g stroke-linecap="round"><g transform="translate(709.6093749999964 2335.2954101562505) rotate(273.0929224415422 351.783423114568 285.3591318905353)" fill-rule="evenodd"><path d="M0.93 1.59 L702.53 85.97 L467.08 570.07 L175.54 450.96 L435.2 219.88 L22.29 188.05 L-0.6 0.49" stroke="none" stroke-width="0" fill="#10c4b4" fill-rule="evenodd"></path><path d="M0.2 -0.01 C271.04 34.07, 541.01 67.4, 703.59 86.64 M-0.24 0.4 C233.69 27.94, 467.04 57.02, 703.69 87.15 M704.38 87.6 C636.87 221.31, 570.83 355.38, 468.4 570.53 M704.25 86.84 C621.44 255.32, 539.39 423.4, 467.93 571.42 M467.61 571.32 C372.22 531.83, 275.79 492.28, 176.4 450 M467.43 571.27 C389.37 539.3, 311.02 506.58, 175.65 449.46 M175.35 450.67 C236.36 398.75, 295.51 344.14, 436.1 220.2 M176.58 449.81 C238.1 397.09, 297.8 343.68, 435.45 218.43 M436.43 218.07 C291.22 206.9, 144.7 195.55, 23.47 185.81 M435.9 219.07 C304.05 209.45, 172.68 198.88, 23.07 186.28 M21.97 185.76 C17.6 132.85, 11.38 81.22, 1.53 -0.7 M23.98 186.05 C18.76 142.48, 13.28 96.32, -0.82 -0.52 M0 0 C0 0, 0 0, 0 0 M0 0 C0 0, 0 0, 0 0" stroke="#000000" stroke-width="4" fill="none"></path></g></g><mask></mask><g stroke-linecap="round"><g transform="translate(314.29687499999636 1719.84619140625) rotate(0 165.6630852759863 246.6785624918723)" fill-rule="evenodd"><path d="M1.49 1.43 L279.14 -409.83 L586.6 140.46 L421.09 567.34 L-255.86 904.37 L-183.84 322.1 L233.9 323.67 L227.46 -36.04 L-0.46 -1.26" stroke="none" stroke-width="0" fill="#10c4b4" fill-rule="evenodd"></path><path d="M0.06 -0.42 C99.43 -145.37, 197.83 -291.41, 278.03 -411.41 M-0.34 -0.35 C110.46 -162.9, 221.08 -325.9, 278.33 -412.02 M278.14 -411.41 C357.79 -270.06, 437.47 -128.28, 588.17 140.26 M278.42 -411.96 C394.75 -201.77, 512.55 7.48, 587.79 139.75 M588.78 140.64 C525.01 298.28, 462.86 455.32, 420.93 567.46 M587.82 139.74 C547.87 237.53, 510.26 334.76, 420.29 566.84 M419.85 566.62 C267.05 643.91, 114.75 721.08, -257.1 904.66 M419.9 567.03 C218.23 665.16, 15.97 766.14, -257.14 904.68 M-257.45 904.75 C-234.08 726.61, -210.35 547.1, -183.47 320.96 M-257.37 905.38 C-240.96 761.12, -222.52 616.64, -183.19 321.16 M-183.99 320.92 C-36.14 321.66, 109.43 322.26, 235.97 321.33 M-182.62 320.86 C-55.57 321.55, 72.57 321.99, 234.88 322.37 M236.07 321.9 C233.48 218.34, 233.88 116.06, 228.48 -36.4 M235.24 322.06 C231.36 193.85, 228.7 67.35, 229.48 -37.18 M230.29 -35.69 C150.12 -20.72, 66.87 -9.06, 1.49 -0.14 M229.49 -37.78 C183.76 -30.23, 137.58 -23.04, -0.19 -0.07 M0 0 C0 0, 0 0, 0 0 M0 0 C0 0, 0 0, 0 0" stroke="#000000" stroke-width="4" fill="none"></path></g></g><mask></mask><g stroke-linecap="round"><g transform="translate(1958.1249999999964 2022.30712890625) rotate(0 -24.50062377303948 790.5290317043662)" fill-rule="evenodd"><path d="M-1.64 -1.87 L725.53 385.56 L245.26 426.15 L11.14 188.52 L-247.46 571.49 L499.61 1016.27 L-112.93 1479.1 L-874.53 1240.86 L-498.81 871.51 L-204.25 997.13 L-125.34 811.29 L-464.56 732.21 L-829.41 903.81 L-1055.21 1410.59 L-229.45 1579.53 L564.48 1511.18 L602.57 1373.62 L942.75 1448.05 L619.71 1172.83 L1004.42 761.29 L354.53 664.32 L952.44 440 L944.55 105.55 L-0.11 -1.71" stroke="none" stroke-width="0" fill="#10c4b4" fill-rule="evenodd"></path><path d="M-0.78 0.41 C230.47 124.17, 459.95 245.74, 725.06 385.09 M-0.07 -0.25 C144.42 77.17, 290.5 154.24, 725.28 384.48 M725.48 384.87 C561.22 399.67, 396.49 414.77, 245.58 424.8 M724.93 384.77 C614.27 394.78, 502.88 403.92, 245.14 425.29 M244.29 424.59 C154.63 334.61, 62.78 245.87, 9.51 190.08 M244.73 425.28 C191.21 371.27, 136.56 317.06, 10.11 190.78 M9.76 190.3 C-56.06 288.66, -123.62 388.54, -249.03 570.41 M10.99 190.26 C-65.93 303.42, -144.16 417.53, -249.46 569.37 M-249.2 569.39 C-16.55 706.51, 215.09 845.64, 498.34 1015.39 M-249.19 569.67 C35.92 742.78, 322.52 912.79, 498.76 1015.08 M498.94 1014.64 C327.25 1144.74, 155.81 1274.4, -112.67 1477.92 M498.41 1014.54 C263.85 1194.6, 28.6 1373.29, -112.34 1477.53 M-111.93 1477.49 C-403.56 1382.95, -696.74 1291.42, -872.81 1239.87 M-112.28 1478 C-341.74 1404.91, -571.34 1332.69, -873 1239.3 M-872.4 1239.01 C-728.54 1099.11, -584.22 957.14, -499.14 871.21 M-872.84 1239.51 C-748.02 1115.37, -621.15 990.58, -499.35 871.45 M-499.27 871.3 C-418.4 905.16, -336.84 938.58, -203.92 996.6 M-500.16 871.99 C-427.29 900.83, -354.67 930.55, -203.6 995.91 M-202.37 997.24 C-175.85 934.39, -151.36 870.47, -127.35 813.76 M-203.51 996.16 C-188.89 954.75, -171.4 915.33, -127.37 812.38 M-127.73 813.1 C-210.97 794.73, -293.79 775.2, -465.22 733.89 M-126.9 813.37 C-220.5 793.8, -313.13 771.08, -465.51 733.14 M-466.64 733.24 C-573.76 782.79, -680.87 833.56, -827.41 902.67 M-465.59 732.95 C-578.65 784.78, -690.39 837.68, -828.05 902.42 M-827.28 902.84 C-904.85 1074.93, -981.59 1247.46, -1053.65 1411.95 M-827.77 902.26 C-892.23 1042.96, -954.99 1184.46, -1053.58 1412.25 M-1053.32 1412.89 C-725.82 1482.29, -396.69 1549.83, -230.59 1581.31 M-1053.84 1412.16 C-815.6 1458.78, -578.78 1507.65, -231.25 1580.62 M-231.23 1580.28 C81.9 1553.62, 394.18 1528.04, 565.87 1512.5 M-230.85 1580.59 C43.54 1554.31, 317.43 1530.76, 566.39 1513.19 M567.01 1511.58 C577.63 1459.54, 594.85 1407.6, 602.57 1372.61 M566.91 1512.06 C576.47 1477.07, 586.82 1440.82, 604.76 1372.62 M605.44 1374.54 C682.14 1387.87, 759.82 1404.74, 942.7 1448.1 M604.85 1373.74 C732.63 1404.26, 862.54 1432.18, 943.73 1448.91 M942.68 1448.15 C832.23 1355.19, 724.38 1262.12, 621.7 1173.21 M943.5 1448.33 C836.9 1358.54, 730.53 1268.74, 620.54 1173.4 M620.98 1173.76 C719.9 1066.46, 818.65 959.58, 1004.84 759.91 M621.01 1174.05 C737.94 1048.88, 855.5 923.15, 1004.52 760.33 M1003.77 759.86 C747.7 722.37, 489.78 684.71, 355.27 662.53 M1004.34 760.69 C857.15 737.38, 710.4 715.82, 356.18 663.06 M355.1 663.3 C522.43 602.27, 688.63 540.47, 951.94 441.6 M356.11 662.91 C504.87 606.19, 652.3 550.84, 952.77 441.34 M952.75 439.79 C951.59 360.82, 949.39 281.26, 944.09 102.43 M951.98 441.35 C949.83 343.79, 947.35 247.3, 945.61 103.27 M944.8 103.83 C685.11 78.96, 425.33 50.47, -0.49 -0.13 M945.03 104.06 C612.16 65.06, 278.09 27.79, 0.16 0.15 M0 0 C0 0, 0 0, 0 0 M0 0 C0 0, 0 0, 0 0" stroke="#000000" stroke-width="4" fill="none"></path></g></g><mask></mask><g stroke-linecap="round"><g transform="translate(122.34374999999636 2886.951904296875) rotate(0 266.66644466272373 493.9362506347595)" fill-rule="evenodd"><path d="M-1.04 1.41 L-67.96 -177.54 L353.63 -22.18 L483.22 11.83 L414.6 624.44 L602.56 985.86 L159.84 1164.9 L-61.07 699.57 L102.48 643.5 L261.68 965.91 L406.26 903.77 L253.86 588.38 L201.38 485.37 L-62.56 544.38 L-48.12 310.56 L261.82 344.52 L-1.4 -0.75" stroke="none" stroke-width="0" fill="#10c4b4" fill-rule="evenodd"></path><path d="M-0.97 1.72 C-22.68 -48.83, -38.41 -98.98, -67.3 -177.4 M0.5 0.17 C-19.57 -49.2, -37.35 -97.73, -68.35 -176.52 M-67.15 -176.34 C39.5 -135.85, 147 -97.22, 355.04 -21.99 M-67.65 -176.4 C49.83 -134.56, 168.03 -92.06, 354.71 -22.04 M354.07 -21.16 C381.79 -13.21, 407.8 -6.3, 483.42 12.46 M355 -21.55 C385.86 -15.84, 418.78 -5.75, 482.67 11.28 M482.86 12.26 C460.33 211.54, 438.72 411.34, 412.61 625.61 M482.22 12.03 C467.46 156.37, 451.06 301.58, 412.73 625.82 M412.65 624.81 C470.02 740.15, 528.5 853.1, 600.03 987.37 M412.31 626.29 C469.05 733.34, 524.84 840.41, 600.74 986.97 M601.69 987.59 C465.01 1041.47, 327.95 1096.92, 160.87 1165.07 M601.3 987.7 C503.53 1027.58, 406 1066.64, 161.1 1165.28 M161.67 1164.99 C80.44 999.06, 1.42 833.79, -59.96 700.65 M161.03 1165.02 C101.24 1037.47, 39.69 908.58, -59.96 699.99 M-59.34 699.01 C-16.84 686.7, 26.1 671.22, 104.27 643.74 M-59.72 700 C-9.78 681.67, 40.66 665.63, 103.98 645.69 M103.87 644.72 C152.79 742.13, 201.81 839.23, 263.04 967.76 M103.38 645.07 C147.96 731.26, 191.07 816.94, 262.98 966.84 M262.46 966.05 C298.41 952.56, 333.1 935.46, 406.75 906.97 M262.36 966.69 C316 945.94, 368.01 924.35, 407.99 906.66 M407.11 905.67 C361.09 816.29, 318.42 727.97, 251.78 589.64 M407.6 905.24 C349.23 791.59, 294.56 678.42, 252.55 588.82 M254.11 587.09 C239.84 562.12, 226.62 531.97, 198.91 487.58 M251.75 589.64 C237.89 558.31, 223.14 528.9, 201.02 486.3 M201.52 486.29 C140.81 501.48, 79.32 514.75, -63.78 545.17 M201.07 487.8 C135.74 502.25, 71.39 515.44, -62.49 545.24 M-62.8 545.63 C-56.81 456.88, -52.09 368.53, -49.95 312.53 M-62.66 546 C-61.67 498.47, -58.01 451.74, -49.18 311.22 M-48.16 313.26 C31.33 321.02, 112.24 328.78, 259.98 343.68 M-48.6 312.02 C25.24 318.69, 98.73 325.75, 261.92 342.44 M261.43 342.24 C163.29 214.97, 65.5 87.35, 0.87 -0.91 M261.61 342.47 C206.81 273.05, 154.21 202.97, -0.22 0.47 M0 0 C0 0, 0 0, 0 0 M0 0 C0 0, 0 0, 0 0" stroke="#000000" stroke-width="4" fill="none"></path></g></g><mask></mask><g stroke-linecap="round"><g transform="translate(2048.7304687499964 3879.971923828125) rotate(0 -250.9216731766537 756.1790862143039)" fill-rule="evenodd"><path d="M-1.97 1.35 L-143.23 434.17 L294.17 241.71 L42.77 738.19 L423.96 541.98 L130.35 1036.83 L521.34 870.94 L266.05 1377.66 L669.59 1118.21 L672.89 1636.38 L-239.69 1726.97 L-424.17 1190.68 L-219.21 947.84 L-47.33 1137.56 L-243.07 1328.76 L10.07 1535.93 L23.02 1186.44 L47.55 1003.67 L-144.12 744.31 L-436.16 369.31 L-587.38 -95.46 L-1082.46 173.51 L-1171.17 -56.3 L-1003.34 -211.8 L-280.93 -106.1 L-238.12 227.72 L0.8 0.13" stroke="none" stroke-width="0" fill="#10c4b4" fill-rule="evenodd"></path><path d="M0.68 -0.71 C-48.38 149.71, -97.33 299.92, -143.66 433.15 M-0.03 0 C-48.78 147.63, -97.79 295.66, -144.58 432.71 M-144.49 432.57 C29.12 357.23, 203.1 283.12, 294.57 243.82 M-144.31 433.01 C23.98 360.92, 191.92 288.34, 294.26 243.4 M294.63 242.77 C195.56 440.99, 96.38 638.08, 44.53 739.31 M293.81 243.79 C229.41 375.67, 162.91 508, 44.23 739.09 M44.89 739.35 C173 671.85, 302.31 603.5, 421.55 540.89 M44.15 738.62 C123.54 697.98, 202.47 656.7, 422.43 540.25 M422.12 540.18 C326.74 706.56, 229.04 872.35, 131.07 1038.86 M422.34 540.23 C319.82 714.74, 217.07 889.79, 131.46 1038.17 M132.47 1037.8 C253.02 987.3, 374.14 934.31, 520.36 869.9 M131.86 1038.19 C224.32 996.74, 316.48 956.72, 521.36 871.04 M520.57 870.66 C421.87 1065.05, 323.77 1260.72, 268.22 1376.58 M520.87 870.32 C450.65 1013.52, 378.74 1156.9, 267.98 1377.32 M267.46 1377.61 C407.61 1287.97, 548.49 1198.34, 671.44 1119.54 M267.38 1377.26 C368.89 1311.71, 470.08 1246.83, 671.57 1119.67 M670.91 1120.01 C671.91 1225.84, 671.37 1332.7, 671.65 1636.13 M671.49 1119.32 C673 1290.26, 672.77 1461.11, 672.08 1636.18 M671.35 1635.27 C391.24 1660.94, 111.76 1688.95, -240.97 1726.03 M671.6 1635.84 C477.54 1654.84, 283.98 1674.02, -240.33 1726 M-240.35 1726.36 C-287.98 1588.49, -336.07 1450.98, -422.92 1191.54 M-240.42 1725.45 C-305.58 1535.37, -371.22 1344.1, -423.35 1191.78 M-423.25 1190.61 C-372.1 1129.95, -320.26 1068.47, -219.82 947.89 M-422.83 1190.95 C-367.52 1122.29, -309.87 1055.26, -219.15 947.48 M-218.47 947.34 C-182.07 986.22, -148.29 1026.51, -47.92 1137.46 M-218.88 948.47 C-183.27 988.97, -146.49 1028.19, -47.73 1137.84 M-48.63 1137.12 C-101.8 1191.25, -155.21 1245.01, -244.35 1331.02 M-48.94 1136.34 C-123.53 1211.95, -199.46 1287.32, -242.98 1330.05 M-243.86 1330.72 C-153.53 1404.96, -63.01 1479.44, 8.9 1536.64 M-243.54 1329.85 C-163.06 1397.6, -80.14 1463.79, 10.75 1535.63 M11.5 1536.6 C13.58 1444.83, 15.91 1354.35, 25.33 1185.78 M10.05 1536.15 C14.09 1441.03, 17.36 1347.39, 24.01 1186.78 M24.46 1186.4 C31.47 1112.63, 38.97 1040.07, 47.1 1004.08 M23.55 1187.26 C31.14 1127.81, 39.09 1069.63, 47.4 1003.31 M46.08 1002.9 C-15.98 921.91, -75.09 841.01, -146.28 743.19 M47.23 1002.43 C2.38 941.77, -44.6 878.2, -145.07 743.91 M-145.43 744.27 C-213.67 658.04, -281.46 571.34, -435.94 371.9 M-145.4 743.62 C-205.14 668.1, -264.55 591.88, -436.15 371.28 M-435.93 371.4 C-491.61 206.27, -544.63 41.79, -587.49 -93.58 M-436.7 371.64 C-468.13 274.35, -498.9 177.44, -586.77 -93.56 M-587.07 -94.44 C-783.82 11.23, -980.87 118.35, -1083.43 173.87 M-586.84 -93.61 C-777.29 6.95, -966.78 109.55, -1082.98 174.79 M-1082.48 175.92 C-1108.13 102.18, -1138.18 28.46, -1173.8 -56.41 M-1083.61 174.51 C-1104.4 114.96, -1128.53 54.1, -1173.08 -57.11 M-1174.46 -56.65 C-1135.09 -92.17, -1095.4 -126.43, -1002.13 -213.57 M-1172.74 -57.08 C-1133.24 -95.5, -1092.6 -131.82, -1003.57 -213.87 M-1002.65 -214 C-760.07 -180.07, -515.92 -145.05, -281.07 -108.11 M-1003.18 -213.52 C-808.51 -184.47, -613.37 -155.84, -280.04 -107.96 M-280.92 -109.29 C-268.99 -17.76, -256.14 71.83, -237.32 226.31 M-280.7 -107.68 C-264.01 4.77, -249.85 116.52, -236.93 226.01 M-237.27 227.29 C-146.53 139.13, -58.4 53.82, 0.47 -0.91 M-237.02 225.76 C-164.63 154.01, -90.2 84.37, -0.52 0.1 M0 0 C0 0, 0 0, 0 0 M0 0 C0 0, 0 0, 0 0" stroke="#000000" stroke-width="4" fill="none"></path></g></g><mask></mask><g stroke-linecap="round"><g transform="translate(160.01953124999636 4166.300048828125) rotate(0 650.7241113222844 614.1438105737502)" fill-rule="evenodd"><path d="M-0.32 0.32 L520.5 -2.33 L665.25 221.17 L199.91 359.77 L317.77 673.09 L1252.43 617.93 L1147.45 314.66 L833.94 401.39 L927.76 194.59 L1165.78 73.1 L1384.76 566.11 L1394.51 858.04 L1265.43 1230.07 L933.91 1075.19 L1130.2 850.89 L711.45 838.56 L260.9 1058.96 L77.48 772.07 L-92.41 669.2 L-13.49 342.93 L228.01 161.91 L0.89 0.31" stroke="none" stroke-width="0" fill="#10c4b4" fill-rule="evenodd"></path><path d="M-0.41 0.03 C197.77 -0.66, 397.62 -1.42, 521.05 -2.15 M0.02 0.04 C137.24 -0.25, 274.82 -0.81, 520.11 -2.07 M520.61 -0.68 C573.74 80.65, 626.75 160.62, 664.59 218.91 M519.55 -1.62 C554.15 52.13, 588.52 106.19, 665.01 220.35 M665.98 220.95 C508.06 267.74, 351.92 315.57, 202.41 360.04 M665.32 220.12 C564.33 249.14, 464.62 278.97, 201.97 358.92 M202.45 360.21 C234.82 446.6, 266.14 534.25, 318.63 672.5 M201.9 359.71 C242.91 471.4, 283.5 581.6, 318.47 671.59 M318.37 672.03 C518.2 661.54, 716.9 650.85, 1253.28 618.79 M318.47 671.5 C520.08 661.46, 721.69 650.39, 1253.35 618.97 M1252.59 618.31 C1219.13 518.24, 1182.67 417.58, 1149.08 314.36 M1253.57 619.33 C1227.65 548.17, 1203.82 476.34, 1147.37 313.51 M1146.76 313.77 C1052.89 339.76, 959.77 368.23, 832.38 401.6 M1147.19 313.87 C1025.88 346.07, 901.99 381.23, 833.17 402.35 M833.74 401.19 C854.2 358.68, 872.97 314.63, 926.57 197.28 M833.48 401.68 C861.62 341.41, 890.11 279.33, 926.49 196.09 M926.58 194.94 C996.21 158, 1069.95 123.64, 1164.13 72.66 M926.67 195.27 C987.82 164.63, 1048.9 133.11, 1165.8 73.07 M1165.13 73.18 C1219.97 196.16, 1274.51 318.72, 1383.42 564.39 M1165.44 73.71 C1242.63 249.2, 1321.13 424.32, 1383.92 564.48 M1384.65 564.62 C1388.42 663.46, 1392.96 764.38, 1394.03 858.9 M1384.4 563.92 C1388.9 659.57, 1391.59 756.35, 1393.81 860.07 M1395.1 860.94 C1345.6 993.7, 1298.71 1124.89, 1265.8 1229.57 M1394.94 859.78 C1365.41 938.82, 1338.07 1017.37, 1264.9 1230.29 M1263.73 1229.69 C1152.33 1178, 1039.08 1128.01, 933.48 1077.01 M1265.31 1230.44 C1173.66 1187.79, 1082.03 1145.7, 932.77 1077.51 M931.22 1077.19 C988.11 1014.3, 1043.65 953.45, 1128.97 851.16 M932.73 1076.22 C980.42 1022.51, 1027.98 966.76, 1127.91 850.44 M1128.68 850.8 C1024.63 848.24, 919.45 845.16, 713.01 836.72 M1128.91 850.63 C964.49 846.65, 801.45 841.42, 712.46 836.85 M712.42 837.66 C550.68 916.87, 389.75 996.36, 261.08 1059.55 M712.27 837.24 C609.82 887.03, 507.61 937, 260.76 1059.73 M261.6 1060.17 C219.5 994.42, 178.74 930.07, 76.63 771.21 M261.18 1059.45 C199.18 959.61, 135.99 860.01, 77.8 769.66 M77.95 771.6 C15.68 732.44, -43.47 699.05, -93.65 668.97 M78.63 769.61 C22.92 735.63, -31.79 703.2, -93.36 669.07 M-93.15 668.57 C-75.25 592.47, -56.29 515.32, -11.54 341.82 M-93.3 667.84 C-62.9 544.77, -31.4 420.85, -11.99 342.11 M-10.05 342.18 C48.07 297.9, 111.93 251.09, 226.53 159.58 M-11.68 341.26 C52.23 292.22, 117.59 243.37, 228.07 161.13 M226.64 161.68 C168.49 120.27, 110.02 77.17, 0.94 -0.13 M226.99 161.21 C149.22 108.12, 70.78 51.88, -0.46 -0.49 M0 0 C0 0, 0 0, 0 0 M0 0 C0 0, 0 0, 0 0" stroke="#000000" stroke-width="4" fill="none"></path></g></g><mask></mask><g stroke-linecap="round"><g transform="translate(2384.7851562499964 3703.448486328126) rotate(0 62.805430276550396 663.6694562834662)" fill-rule="evenodd"><path d="M-1.3 1.9 L-431.12 43.94 L43.58 250.62 L170.39 418.98 L386.46 450.59 L226.05 860.51 L454.68 799.77 L348.77 1046.38 L532.56 1395.87 L555.5 825.41 L545.45 595.33 L443.64 680.54 L543.51 442.24 L510.6 221.78 L227.19 118.82 L517.35 -65.56 L1.4 -0.39" stroke="none" stroke-width="0" fill="#10c4b4" fill-rule="evenodd"></path><path d="M-0.99 0.73 C-101.22 10.32, -202.73 20.69, -429.84 45.02 M0.23 0.12 C-135.92 15.15, -270.74 30.04, -429.79 45.61 M-430.08 44.85 C-301.71 101.27, -175.49 154.76, 42.11 249.35 M-429.35 45.48 C-318.52 92.13, -209.44 138.99, 42.6 248.71 M42.02 250.22 C75.67 294.81, 108.25 336.29, 170.78 419.29 M41.84 249.19 C75.16 289.19, 105.33 330.54, 169.93 418.07 M172.25 416.68 C246.03 431.98, 322.64 441.68, 387.94 450.4 M170.72 416.99 C214.19 425.2, 257.68 431.64, 388.59 450.3 M388.08 450.46 C345.22 557.07, 303.12 663.3, 224.9 860.02 M388.45 450.87 C332.61 593.27, 275.74 735.16, 224.66 860.51 M225.26 861.42 C306.5 838.28, 392.29 815.88, 456.59 796.38 M224.43 861.06 C278.12 846.91, 330.72 832.57, 455.57 797.26 M454.64 798.19 C417.89 880.96, 381.75 967.13, 349.91 1043.65 M455.29 798.42 C427.04 859.86, 400.14 922.78, 348.66 1044.76 M347.89 1044.34 C401.68 1147.68, 456.85 1249.17, 533.05 1394.53 M348.19 1044.84 C413.82 1169.75, 482.04 1296.83, 533.63 1394.11 M533 1394.27 C542.57 1174.23, 550.69 954.84, 554.99 825.71 M533.46 1393.91 C536.29 1276.49, 540.79 1158.36, 555.06 824.7 M555.04 824.06 C552.32 750.32, 549.05 674.53, 545.38 596.8 M555.69 824.34 C551.97 769.82, 549.68 715.12, 547.69 597 M545.51 598.69 C519.21 617.8, 489.35 639.42, 440.86 681.46 M546.08 596.13 C519.23 619.32, 491.38 642.01, 441.78 680.48 M441.23 681.38 C465.06 625.88, 490.45 569.96, 541.67 442.65 M442.29 680.06 C476.32 601.68, 508.9 521.93, 542.34 444.34 M541.55 443.7 C531.9 390.57, 524.93 335.12, 511.2 221.49 M541.1 443.67 C533.65 377.47, 524.82 311.62, 511.55 220.13 M511.11 220.73 C407.31 182.51, 305.89 145.48, 227.78 118.24 M510.71 220.54 C423.83 187.72, 335.79 155.54, 226.24 119.2 M228.14 117.7 C336.71 52.06, 444.53 -16.48, 520.12 -67.01 M226.77 118.77 C337 50.8, 446.79 -18.18, 518.8 -66.81 M519.17 -67.19 C387.82 -48.82, 256.29 -31.27, -0.26 -0.61 M519.18 -66.52 C386.05 -50.29, 253.18 -33.27, -0.22 -0.31 M0 0 C0 0, 0 0, 0 0 M0 0 C0 0, 0 0, 0 0" stroke="#000000" stroke-width="4" fill="none"></path></g></g><mask></mask><g stroke-linecap="round"><g transform="translate(281.30859374999636 5599.854736328125) rotate(0 364.9096828881393 44.44018616459016)" fill-rule="evenodd"><path d="M-28.76 41 L687.26 62.13 L850.21 266.56 L637.9 362.55 L312.73 473.72 L-28.08 306.23 L356.43 287.63 L625.24 210.51 L133.68 190.5 L-111.99 134.27 L-121.14 -214.64 L-51.03 -386.12 L47.97 -196.99 L-61.64 -71.41 L-25.46 40.95" stroke="none" stroke-width="0" fill="#10c4b4" fill-rule="evenodd"></path><path d="M-27.81 40.31 C168.22 44.14, 364.81 49.56, 686.4 60.57 M-26.87 39.76 C165.4 46.11, 358.84 52.04, 685.72 61.34 M687.4 62.26 C737.36 124.91, 789.8 190.23, 850.36 264.39 M686.26 60.95 C726.59 109.37, 764.66 157.7, 849.46 265.86 M849.62 264 C774.87 299.26, 702.73 331.2, 635.83 360.52 M850.74 265.05 C779.94 295.52, 709.02 326.87, 637.58 360.54 M638.34 361.38 C508.51 403.44, 383.73 447.15, 311.84 473.62 M636.64 361.25 C511.61 405.77, 384.34 450.59, 313.36 472.98 M313.15 474.48 C201.62 419.13, 88.67 363.01, -27.37 307.99 M312.98 473.96 C189.91 413.94, 66.58 354.91, -27.28 307.91 M-27.78 306.75 C111.46 301.44, 248.39 293.85, 357.75 287.66 M-27.07 307.22 C59.59 304.89, 146.85 299.46, 358.15 286.26 M357.39 288.09 C430.57 266.03, 502.67 245.49, 624.37 207.91 M358.47 286.89 C447.74 262.4, 537.88 235.9, 622.6 208.94 M623.73 209.45 C451.6 204.71, 279.28 198.62, 132.75 192.17 M623.12 209.31 C458.16 203.23, 293.66 197.57, 132.76 191.19 M131.82 190.26 C81.03 176.62, 31.97 166.87, -111.66 135.71 M133.32 191.66 C67.16 177.72, 0.57 163.6, -113.63 134.6 M-112.38 134.59 C-112.59 34.64, -116.77 -66.58, -119.36 -213.94 M-112.54 135.38 C-117.35 21.54, -119.5 -92.81, -120.74 -212.96 M-119.1 -213.78 C-95.29 -271.86, -71.66 -330.99, -51.18 -383.98 M-120.92 -213.89 C-94.91 -276.97, -70.69 -339.04, -51.03 -385.6 M-50.13 -383.82 C-22.08 -333.53, 4.82 -279.19, 48.15 -196.93 M-51.21 -385.17 C-27.98 -343.68, -6.59 -303.47, 49.5 -196.92 M48.04 -196.97 C18.82 -160.81, -15.29 -126.65, -64.55 -71.01 M49.18 -196.74 C22.19 -165.67, -5.05 -135.88, -63.07 -71.45 M-63.88 -70.4 C-56.54 -45.17, -46.64 -18.73, -25.61 40.22 M-62.75 -71.46 C-56.79 -43.73, -48.02 -17.43, -27.77 40.55 M-27.21 40.01 C-27.21 40.01, -27.21 40.01, -27.21 40.01 M-27.21 40.01 C-27.21 40.01, -27.21 40.01, -27.21 40.01" stroke="#000000" stroke-width="4" fill="none"></path></g></g><mask></mask><g stroke-linecap="round"><g transform="translate(1156.7836500109443 844.4784103662316) rotate(0 -113.51870631964812 282.38115378057455)" fill-rule="evenodd"><path d="M-0.09 0.76 L-353.87 506.46 L-71.5 567.05 L112.47 553.69 L123.89 316.4 L-19.13 345.65 L127.87 163.02 L-0.04 1.22" stroke="none" stroke-width="0" fill="#10c4b4" fill-rule="evenodd"></path><path d="M-0.42 -0.16 C-136.89 193.14, -270.94 385.45, -355.06 508.43 M-0.37 0.05 C-112.27 161.59, -225.22 322.95, -355.42 507.94 M-356.82 509.47 C-252.14 529.18, -150.31 551.96, -72.56 565.16 M-355.54 508.07 C-292.62 521.9, -231.6 534.12, -71.69 564.52 M-70.88 563.24 C-12.89 559.61, 44.54 558.07, 111.35 553.98 M-71.22 564.48 C-20.91 561.77, 30.54 557.12, 112.64 553.89 M111.92 552.11 C114.27 495.89, 117.6 437.12, 124.8 315.52 M112.5 553.05 C115.27 506.45, 117.89 458.3, 122.95 316.47 M122.48 316.34 C84.93 327.4, 46.55 334.32, -21.28 345.88 M124.15 316.64 C89.85 323.74, 54.93 331.93, -20.4 348.21 M-22.03 345.71 C22.4 289.1, 70.14 235.33, 127.5 162.1 M-20.88 348 C19.2 298.13, 59.27 248.37, 127.84 161.1 M129.79 160.42 C101.68 128.62, 76.83 95.24, 0.27 -0.2 M128.19 162.31 C92.62 119.74, 59.09 76.95, -0.06 -0.4 M0 0 C0 0, 0 0, 0 0 M0 0 C0 0, 0 0, 0 0" stroke="#000000" stroke-width="4" fill="none"></path></g></g><mask></mask><g stroke-linecap="round"><g transform="translate(1515.0390624999964 3046.207275390625) rotate(0 281.2570783900155 88.64406814627228)" fill-rule="evenodd"><path d="M-1.24 0.59 L-161.79 135.32 L277.54 296.13 L721.6 3.89 L392.93 -120.64 L245.05 143.47 L-0.42 0.75" stroke="none" stroke-width="0" fill="#10c4b4" fill-rule="evenodd"></path><path d="M1 0.22 C-45.28 37.31, -90.07 76.97, -160.97 134.63 M0.74 0.26 C-38.23 30.75, -76.34 63.02, -159.2 135.93 M-159.24 135.97 C-69.26 171.06, 23.28 204.19, 277.22 296.61 M-159.79 135.36 C-40.21 178.93, 79.44 223.08, 276.02 297.31 M276.28 297.19 C365.03 237.08, 456.24 178.82, 722.89 6.15 M276.18 296.79 C419.67 205.84, 562.3 112.49, 723.08 5.76 M722.2 5.56 C645.56 -26.16, 565.95 -55.91, 394.49 -120.02 M723.49 5.98 C652.29 -22.5, 583.82 -48.32, 394.73 -118.53 M394.67 -118.63 C337.53 -17.9, 281.15 84.03, 245.22 143.76 M393.96 -118.31 C342.87 -24.82, 290.43 67.1, 245.13 144.66 M244.37 143.86 C167.9 99.87, 91.06 55.86, -0.24 -0.72 M244.64 145.87 C158.37 94.05, 71.98 42.77, -0.56 0.35 M0 0 C0 0, 0 0, 0 0 M0 0 C0 0, 0 0, 0 0" stroke="#000000" stroke-width="4" fill="none"></path></g></g><mask></mask><g stroke-linecap="round"><g transform="translate(266.67968749999636 6474.088134765625) rotate(0 143.33597398565144 -23.26941917798149)" fill-rule="evenodd"><path d="M-0.54 0.09 L265.04 -167.59 L503.07 119.09 L-219.35 115.68 L-1.67 -0.48" stroke="none" stroke-width="0" fill="#10c4b4" fill-rule="evenodd"></path><path d="M-0.98 -0.31 C53.86 -35.67, 108.04 -70.11, 266.77 -166.9 M0.29 -0.38 C91.17 -58.48, 180.94 -114.43, 266.71 -166.64 M267.5 -165.87 C343.04 -72.27, 421.57 21.48, 505.17 120.46 M266.5 -167 C349.34 -68.01, 429.63 28.62, 504 119.7 M504.23 118.98 C351.63 116.75, 198.82 116.99, -218.49 113.66 M504.76 119.72 C217.18 117.67, -70.58 115.45, -218.41 113.88 M-217.65 114.97 C-135.91 71.57, -53.53 28.18, 0.25 1.46 M-218.22 113.33 C-158.21 83.5, -96.76 50.73, -0.69 0.1 M0 0 C0 0, 0 0, 0 0 M0 0 C0 0, 0 0, 0 0" stroke="#000000" stroke-width="4" fill="none"></path></g></g><mask></mask><g stroke-linecap="round"><g transform="translate(2697.5195312499964 5884.364013671875) rotate(0 -638.8804798765705 356.65367741215323)" fill-rule="evenodd"><path d="M-0.31 -0.16 L267.53 711.69 L-1546.05 709.31 L-1280.45 472.67 L-668.35 606.68 L-310.54 432.34 L-1132.01 344.83 L-526.03 223.32 L-725.91 122.42 L-301.68 12.86 L-160.85 314.78 L35.72 431.16 L-1.78 1.22" stroke="none" stroke-width="0" fill="#10c4b4" fill-rule="evenodd"></path><path d="M0.72 -0.76 C94.94 257.37, 192.59 514.42, 267.74 711.12 M-0.01 -0.26 C71.99 187.28, 142.75 374.95, 267.97 710.39 M267.31 710.27 C-433.66 715.71, -1135.39 715.04, -1544.78 709.96 M267.86 710.71 C-427.82 712.31, -1123.39 712.25, -1545.2 710.64 M-1545.74 711.13 C-1465.59 637.85, -1385.99 565.11, -1281.04 471.43 M-1545.65 711.04 C-1454.76 629.47, -1365.7 548.56, -1281.04 470.44 M-1280.65 470.41 C-1088.61 511.93, -897.98 553.44, -669.25 607.7 M-1280.79 471.15 C-1156.56 500.43, -1032.58 528.14, -668.86 607.05 M-669.78 607.17 C-588.66 566.38, -509.94 528.67, -310.62 432.09 M-668.87 606.94 C-587.57 566.6, -506.11 526.28, -310.71 431.68 M-311.36 432.63 C-565.49 405.65, -820.27 379.81, -1132.23 345.93 M-311.2 431.61 C-587.84 400.99, -864.75 372.14, -1131.59 346.19 M-1131.31 346.18 C-1008.21 321.66, -885.83 297.07, -527.16 222.59 M-1131.52 345.97 C-961.86 310.56, -791.19 275.31, -526.2 223.14 M-524.85 223.01 C-596.13 187.33, -666.81 149.95, -724.52 122.34 M-527.02 223.97 C-595.41 186.76, -663.43 152.2, -726.3 120.17 M-725.95 120.49 C-593.43 87.99, -462.11 55.04, -301.87 13.38 M-725.71 120.97 C-612.85 92.41, -500.81 64.04, -302.07 13.32 M-302.44 12.46 C-242.89 134.61, -187.25 254.9, -162.5 315.29 M-302.24 14.14 C-249.25 129.76, -194.87 245.16, -161.99 314.03 M-160.79 314.29 C-85.76 359.35, -4.07 404.5, 37.43 431.23 M-161.86 314.13 C-92.45 354.33, -21.27 394.07, 36.58 429.75 M37.07 429.82 C21.75 258.09, 7.4 86.97, -0.69 -0.59 M37.01 429.56 C28.8 322.05, 19.39 215.73, -0.48 -0.42 M0 0 C0 0, 0 0, 0 0 M0 0 C0 0, 0 0, 0 0" stroke="#000000" stroke-width="4" fill="none"></path></g></g><mask></mask></svg>